<svg width="32" height="32" viewBox="0 0 32 32" fill="none" xmlns="http://www.w3.org/2000/svg">
<path d="M31.0836 9.14286L12.345 9.14286C12.2246 9.14276 12.1054 9.1664 11.9942 9.21242C11.883 9.25844 11.7819 9.32594 11.6968 9.41106C11.6117 9.49618 11.5442 9.59724 11.4981 9.70847C11.4521 9.8197 11.4285 9.93891 11.4286 10.0593L11.4286 12.7979C11.4285 12.9182 11.4521 13.0374 11.4981 13.1487C11.5442 13.2599 11.6117 13.361 11.6968 13.4461C11.7819 13.5312 11.883 13.5987 11.9942 13.6447C12.1054 13.6907 12.2246 13.7144 12.345 13.7143L31.0836 13.7143C31.2039 13.7144 31.3232 13.6907 31.4344 13.6447C31.5456 13.5987 31.6467 13.5312 31.7318 13.4461C31.8169 13.361 31.8844 13.2599 31.9304 13.1487C31.9765 13.0374 32.0001 12.9182 32 12.7979L32 10.0593C32.0001 9.93891 31.9765 9.8197 31.9304 9.70847C31.8844 9.59724 31.8169 9.49618 31.7318 9.41106C31.6467 9.32594 31.5456 9.25844 31.4344 9.21242C31.3232 9.1664 31.2039 9.14276 31.0836 9.14286ZM31.0836 27.4286L12.345 27.4286C12.2246 27.4285 12.1054 27.4521 11.9942 27.4981C11.883 27.5442 11.7819 27.6117 11.6968 27.6968C11.6117 27.7819 11.5442 27.883 11.4981 27.9942C11.4521 28.1054 11.4285 28.2246 11.4286 28.345V31.0836C11.4285 31.2039 11.4521 31.3232 11.4981 31.4344C11.5442 31.5456 11.6117 31.6467 11.6968 31.7318C11.7819 31.8169 11.883 31.8844 11.9942 31.9304C12.1054 31.9765 12.2246 32.0001 12.345 32L31.0836 32C31.2039 32.0001 31.3232 31.9765 31.4344 31.9304C31.5456 31.8844 31.6467 31.8169 31.7318 31.7318C31.8169 31.6467 31.8844 31.5456 31.9304 31.4344C31.9765 31.3232 32.0001 31.2039 32 31.0836V28.345C32.0001 28.2246 31.9765 28.1054 31.9304 27.9942C31.8844 27.883 31.8169 27.7819 31.7318 27.6968C31.6467 27.6117 31.5456 27.5442 31.4344 27.4981C31.3232 27.4521 31.2039 27.4285 31.0836 27.4286ZM1.14286 22.8571L30.8571 22.8571C31.1602 22.8571 31.4509 22.7367 31.6653 22.5224C31.8796 22.3081 32 22.0174 32 21.7143L32 19.4286C32 19.1255 31.8796 18.8348 31.6653 18.6204C31.4509 18.4061 31.1602 18.2857 30.8571 18.2857L1.14286 18.2857C0.83975 18.2857 0.549061 18.4061 0.334732 18.6204C0.120405 18.8348 0 19.1255 0 19.4286L0 21.7143C0 22.0174 0.120405 22.3081 0.334732 22.5224C0.549061 22.7367 0.83975 22.8571 1.14286 22.8571ZM1.14286 4.57143L30.8571 4.57143C31.1602 4.57143 31.4509 4.45102 31.6653 4.23669C31.8796 4.02237 32 3.73167 32 3.42857L32 1.14286C32 0.83975 31.8796 0.549061 31.6653 0.334732C31.4509 0.120405 31.1602 0 30.8571 0L1.14286 0C0.83975 0 0.549061 0.120405 0.334732 0.334732C0.120405 0.549061 0 0.83975 0 1.14286L0 3.42857C0 3.73167 0.120405 4.02237 0.334732 4.23669C0.549061 4.45102 0.83975 4.57143 1.14286 4.57143Z" fill="#2E353F"/>
</svg>
