<svg width="46" height="50" viewBox="0 0 46 50" fill="none" xmlns="http://www.w3.org/2000/svg">
<path fill-rule="evenodd" clip-rule="evenodd" d="M25.989 40.2354V9.79371L19.5228 6.12943V38.2089L16.2069 40.0897V4.25031L10.321 0.914879C5.73388 -1.68457 0 1.56475 0 6.76364V43.2655C0 46.9753 2.91967 49.6924 6.25892 50V10.2055C6.25892 8.63267 7.55795 7.35767 9.16039 7.35767H9.74069V49.4096C9.93575 49.3211 10.1294 49.2228 10.321 49.1142L25.989 40.2354ZM29.305 38.3563L42.5274 30.8633C47.1145 28.2639 47.1145 21.7652 42.5274 19.1658L39.0871 17.2162V27.1629L35.7711 29.0422V15.3371L29.305 11.6728V38.3563Z" fill="#569B51"/>
</svg>
