<svg width="32" height="34" viewBox="0 0 32 34" fill="none" xmlns="http://www.w3.org/2000/svg">
<path d="M0 25.5916C0 26.9979 1.07294 28.1379 2.39656 28.1379H29.6034C30.927 28.1379 32 26.9979 32 25.5916V23.4482H0V25.5916Z" fill="#C8414B"/>
<path d="M29.6034 5.86206H2.39656C1.07294 5.86206 0 7.00206 0 8.40841V10.5517H32V8.40841C32 7.00206 30.9271 5.86206 29.6034 5.86206Z" fill="#C8414B"/>
<path d="M32 10.552H0V23.4488H32V10.552Z" fill="#FFD250"/>
<path d="M13.5174 17L13.9852 14.7634C14.0283 14.5574 13.8807 14.3621 13.6821 14.3621H13.3526C13.154 14.3621 13.0065 14.5575 13.0495 14.7634L13.5174 17Z" fill="#C8414B"/>
<path d="M14.0688 15.8271H12.9653V20.8096H14.0688V15.8271Z" fill="#F5F5F5"/>
<path d="M14.3447 15.2415H12.6895V15.8277H14.3447V15.2415Z" fill="#FAB446"/>
<path d="M14.3447 17H11.586V17.5862H14.3447V17Z" fill="#C8414B"/>
<path d="M14.3446 19.3448L12.6895 18.7586V18.1724L14.3446 18.7586V19.3448Z" fill="#C8414B"/>
<path d="M5.24111 17L5.70893 14.7634C5.75205 14.5574 5.60449 14.3621 5.40586 14.3621H5.07636C4.8778 14.3621 4.7303 14.5575 4.7733 14.7634L5.24111 17Z" fill="#C8414B"/>
<path d="M7.17229 15.2415C6.86761 15.2415 6.62054 15.504 6.62054 15.8277V19.638C6.62054 20.3502 7.24617 21.6898 9.37917 21.6898C11.5122 21.6898 12.1378 20.3503 12.1378 19.638V15.8277C12.1378 15.504 11.8907 15.2415 11.586 15.2415H7.17229Z" fill="#F5F5F5"/>
<path d="M9.37917 18.1725H6.62054V15.8277C6.62054 15.504 6.86761 15.2415 7.17229 15.2415H9.37917V18.1725Z" fill="#C8414B"/>
<path d="M9.37897 18.1726H12.1376V19.6381C12.1376 20.4476 11.5201 21.1036 10.7583 21.1036C9.99647 21.1036 9.37897 20.4476 9.37897 19.6381V18.1726Z" fill="#C8414B"/>
<path d="M6.62054 18.1724H9.37917V19.6379C9.37917 20.4473 8.76167 21.1034 7.99986 21.1034C7.23804 21.1034 6.62054 20.4473 6.62054 19.6379V18.1724Z" fill="#FAB446"/>
<path d="M8.82775 20.8037V18.1724H8.276V21.0739C8.48125 21.0296 8.66669 20.9331 8.82775 20.8037Z" fill="#C8414B"/>
<path d="M7.72417 21.0739V18.1724H7.17242V20.8037C7.33355 20.9331 7.51899 21.0296 7.72417 21.0739Z" fill="#C8414B"/>
<path d="M8.82785 17H7.17267V17.5862H8.82785V17Z" fill="#FFB441"/>
<path d="M8.82785 15.8271H7.17267V16.4134H8.82785V15.8271Z" fill="#FAB446"/>
<path d="M8.55174 16.1758H7.4483V17.2378H8.55174V16.1758Z" fill="#FAB446"/>
<path d="M5.79295 15.8271H4.68951V20.8096H5.79295V15.8271Z" fill="#F5F5F5"/>
<path d="M6.06882 20.5173H4.41364V21.1036H6.06882V20.5173Z" fill="#FAB446"/>
<path d="M6.06882 15.2415H4.41364V15.8277H6.06882V15.2415Z" fill="#FAB446"/>
<path d="M6.345 21.1033H4.13812V21.6895H6.345V21.1033Z" fill="#5064AA"/>
<path d="M14.6205 20.5176H12.9653V21.1038H14.6205V20.5176Z" fill="#FAB446"/>
<path d="M14.6205 21.1033H12.4136V21.6895H14.6205V21.1033Z" fill="#5064AA"/>
<path d="M11.0347 14.6553H7.72437V15.2415H11.0347V14.6553Z" fill="#FAB446"/>
<path d="M9.65551 12.8967H9.10376V14.6554H9.65551V12.8967Z" fill="#FFB441"/>
<path d="M8.82756 13.7759C8.37119 13.7759 8 13.3815 8 12.8966C8 12.4117 8.37125 12.0173 8.82756 12.0173C9.28394 12.0173 9.65512 12.4118 9.65512 12.8966C9.65519 13.3815 9.28394 13.7759 8.82756 13.7759ZM8.82756 12.6035C8.67537 12.6035 8.55169 12.7349 8.55169 12.8966C8.55169 13.0583 8.67531 13.1897 8.82756 13.1897C8.97981 13.1897 9.10344 13.0584 9.10344 12.8966C9.10344 12.7349 8.97981 12.6035 8.82756 12.6035Z" fill="#F5F5F5"/>
<path d="M9.93083 13.7759C9.47446 13.7759 9.10327 13.3815 9.10327 12.8966C9.10327 12.4117 9.47452 12.0173 9.93083 12.0173C10.3872 12.0173 10.7584 12.4118 10.7584 12.8966C10.7584 13.3815 10.3871 13.7759 9.93083 13.7759ZM9.93083 12.6035C9.77865 12.6035 9.65496 12.7349 9.65496 12.8966C9.65496 13.0583 9.77858 13.1897 9.93083 13.1897C10.083 13.1897 10.2067 13.0584 10.2067 12.8966C10.2066 12.7349 10.083 12.6035 9.93083 12.6035Z" fill="#F5F5F5"/>
<path d="M11.0345 14.3621C10.5782 14.3621 10.207 13.9676 10.207 13.4828C10.207 12.9979 10.5782 12.6035 11.0345 12.6035C11.4909 12.6035 11.8621 12.998 11.8621 13.4828C11.8621 13.9676 11.4908 14.3621 11.0345 14.3621ZM11.0345 13.1897C10.8823 13.1897 10.7587 13.321 10.7587 13.4828C10.7587 13.6445 10.8823 13.7759 11.0345 13.7759C11.1867 13.7759 11.3104 13.6446 11.3104 13.4828C11.3104 13.321 11.1867 13.1897 11.0345 13.1897Z" fill="#F5F5F5"/>
<path d="M7.72399 14.3621C7.26761 14.3621 6.89642 13.9676 6.89642 13.4828C6.89642 12.9979 7.26767 12.6035 7.72399 12.6035C8.18036 12.6035 8.55155 12.998 8.55155 13.4828C8.55161 13.9676 8.18036 14.3621 7.72399 14.3621ZM7.72399 13.1897C7.5718 13.1897 7.44811 13.321 7.44811 13.4828C7.44811 13.6445 7.57174 13.7759 7.72399 13.7759C7.87624 13.7759 7.99986 13.6445 7.99986 13.4827C7.99986 13.321 7.87624 13.1897 7.72399 13.1897Z" fill="#F5F5F5"/>
<path d="M11.0345 19.3447V19.6378C11.0345 19.7995 10.9108 19.9309 10.7587 19.9309C10.6065 19.9309 10.4828 19.7995 10.4828 19.6378V19.3447H11.0345ZM11.5862 18.7585H9.93103V19.6378C9.93103 20.1227 10.3023 20.5171 10.7586 20.5171C11.215 20.5171 11.5862 20.1227 11.5862 19.6378V18.7585H11.5862Z" fill="#FAB446"/>
<path d="M10.7587 17.5863C10.454 17.5863 10.2069 17.3238 10.2069 17.0001V16.4139C10.2069 16.0901 10.454 15.8276 10.7587 15.8276C11.0633 15.8276 11.3104 16.0901 11.3104 16.4139V17.0001C11.3104 17.3238 11.0633 17.5863 10.7587 17.5863Z" fill="#FFA0D2"/>
<path d="M9.37938 19.0513C9.83643 19.0513 10.2069 18.6576 10.2069 18.172C10.2069 17.6864 9.83643 17.2927 9.37938 17.2927C8.92233 17.2927 8.55182 17.6864 8.55182 18.172C8.55182 18.6576 8.92233 19.0513 9.37938 19.0513Z" fill="#5064AA"/>
<path d="M9.65551 11.7241H9.10376V13.4828H9.65551V11.7241Z" fill="#FAB446"/>
<path d="M7.72417 14.6551L7.17242 14.0689L7.49561 13.7255C7.99517 13.1947 8.6728 12.8965 9.37936 12.8965C10.0859 12.8965 10.7635 13.1947 11.2631 13.7255L11.5863 14.0689L11.0345 14.6551H7.72417Z" fill="#C8414B"/>
<path d="M9.37939 14.3619C9.53175 14.3619 9.65526 14.2306 9.65526 14.0688C9.65526 13.9069 9.53175 13.7756 9.37939 13.7756C9.22703 13.7756 9.10352 13.9069 9.10352 14.0688C9.10352 14.2306 9.22703 14.3619 9.37939 14.3619Z" fill="#FFD250"/>
<path d="M8.27563 14.3619C8.42799 14.3619 8.55151 14.2306 8.55151 14.0688C8.55151 13.9069 8.42799 13.7756 8.27563 13.7756C8.12327 13.7756 7.99976 13.9069 7.99976 14.0688C7.99976 14.2306 8.12327 14.3619 8.27563 14.3619Z" fill="#FFD250"/>
<path d="M10.4825 14.3619C10.6349 14.3619 10.7584 14.2306 10.7584 14.0688C10.7584 13.9069 10.6349 13.7756 10.4825 13.7756C10.3302 13.7756 10.2067 13.9069 10.2067 14.0688C10.2067 14.2306 10.3302 14.3619 10.4825 14.3619Z" fill="#FFD250"/>
<path d="M7.17239 17H4.41364V17.5862H7.17239V17Z" fill="#C8414B"/>
<path d="M4.41376 19.3448L6.06888 18.7586V18.1724L4.41376 18.7586V19.3448Z" fill="#C8414B"/>
</svg>
